M48
METRIC,0000.00
T01C0.4
T02C0.9
T03C1.2
T04C1.4
T05C3.5
%
T01
X+002064Y+002715
X+002381Y+002270
X+002524Y+002334
X+002937Y+002635
X+003127Y+002635
X+003318Y+002635
X+003318Y+002873
X+002937Y+002873
X+003064Y+002413
X+003064Y+002302
X+003064Y+002191
X+003191Y+002191
X+003191Y+002302
X+003191Y+002413
X+003127Y+001937
X+003318Y+001937
X+003318Y+001715
X+002937Y+001699
X+002937Y+001937
X+002270Y+001714
X+000206Y+001461
X+000206Y+002921
X+000206Y+004143
X+000190Y+005350
X+001334Y+005905
X+002524Y+005905
X+003874Y+005286
X+004016Y+004572
X+004794Y+004842
X+005175Y+004842
X+005572Y+004842
X+005556Y+005286
X+005937Y+005286
X+005175Y+005286
X+004794Y+005286
X+005429Y+003969
X+004762Y+003302
X+004239Y+002889
X+004445Y+002635
X+006080Y+002985
X+006255Y+002810
X+007096Y+002127
X+007096Y+001032
X+007096Y+004493
X+007096Y+005778
X+003112Y+004334
X+001778Y+004461
X+001778Y+003747
T02
X+004921Y+002350
X+005271Y+002350
T03
X+004413Y+004874
X+004159Y+004874
X+003905Y+004874
X+003651Y+004874
X+003397Y+004874
X+003143Y+004874
X+002889Y+004874
X+002635Y+004874
X+002381Y+004874
X+002127Y+004874
X+001873Y+004874
X+001619Y+004874
X+001365Y+004874
X+001111Y+004874
X+001111Y+004620
X+001111Y+004366
X+001111Y+004112
X+001111Y+003858
X+001111Y+003604
X+001111Y+003350
X+001365Y+003350
X+001619Y+003350
X+001873Y+003350
X+002127Y+003350
X+002381Y+003350
X+002635Y+003350
X+002889Y+003350
X+003143Y+003350
X+003397Y+003350
X+003651Y+003350
X+003905Y+003350
X+004159Y+003350
X+004413Y+003350
T04
X+005921Y+001050
X+005540Y+001050
X+004239Y+001050
X+003858Y+001050
X+003207Y+001050
X+002826Y+001050
X+002445Y+001050
X+002064Y+001050
X+001683Y+001050
X+001302Y+001050
X+003048Y+006250
X+003429Y+006250
X+003810Y+006250
X+004191Y+006250
X+004794Y+006250
X+005175Y+006250
X+005556Y+006250
X+005937Y+006250
T05
X+000650Y+000650
X+000650Y+006550
X+006650Y+006550
X+006650Y+000650
T00
M30
